<svg width="110" height="50" viewBox="0 0 110 50" fill="none" xmlns="http://www.w3.org/2000/svg">
<circle cx="23.3689" cy="28.8558" r="17.0103" stroke="#40454E" stroke-width="2.26804"/>
<path d="M57.8884 46.1291C56.3737 46.1291 55.0105 45.8362 53.7988 45.2506C52.5871 44.6649 51.5975 43.8874 50.8301 42.918L51.6177 42.2213C53.2535 44.2206 55.3438 45.2203 57.8884 45.2203C58.9991 45.2203 59.9584 45.0789 60.7662 44.7962C61.574 44.4932 62.1799 44.1095 62.5838 43.645C62.9877 43.1603 63.2806 42.6757 63.4623 42.191C63.6441 41.6861 63.735 41.1711 63.735 40.646C63.735 39.616 63.432 38.7577 62.8262 38.0711C62.2203 37.3643 61.463 36.8594 60.5542 36.5564C59.6454 36.2535 58.6558 35.9405 57.5854 35.6174C56.5353 35.274 55.5558 34.9509 54.647 34.648C53.7382 34.3248 52.9809 33.7998 52.375 33.0727C51.7692 32.3457 51.4662 31.447 51.4662 30.3766C51.4662 28.8014 52.0822 27.5493 53.3141 26.6203C54.546 25.6913 56.0405 25.2268 57.7975 25.2268C60.6249 25.2268 62.806 26.176 64.3408 28.0744L63.5835 28.7711C62.2304 27.0141 60.3017 26.1356 57.7975 26.1356C56.303 26.1356 55.0509 26.5395 54.0412 27.3473C53.0314 28.1349 52.5265 29.1447 52.5265 30.3766C52.5265 31.1441 52.7486 31.8004 53.1929 32.3457C53.6574 32.891 54.2431 33.3151 54.9499 33.618C55.677 33.9209 56.4747 34.2037 57.3431 34.4662C58.2317 34.7086 59.1102 34.9812 59.9786 35.2841C60.847 35.5669 61.6346 35.9102 62.3415 36.3141C63.0685 36.718 63.6542 37.2936 64.0985 38.0408C64.563 38.7678 64.7952 39.6362 64.7952 40.646C64.7952 41.2721 64.6841 41.888 64.462 42.4939C64.2398 43.0796 63.8864 43.6652 63.4017 44.2509C62.917 44.8164 62.2001 45.2708 61.2509 45.6141C60.3017 45.9574 59.1809 46.1291 57.8884 46.1291Z" fill="#40454E"/>
<path d="M78.6746 46.1291C75.7867 46.1291 73.4642 45.1395 71.7072 43.1603C69.9502 41.161 69.0717 38.6669 69.0717 35.6779C69.0717 32.689 69.9502 30.205 71.7072 28.2258C73.4642 26.2265 75.7867 25.2268 78.6746 25.2268C81.5424 25.2268 83.8547 26.2265 85.6117 28.2258C87.3889 30.205 88.2775 32.689 88.2775 35.6779C88.2775 38.6669 87.3889 41.161 85.6117 43.1603C83.8547 45.1395 81.5424 46.1291 78.6746 46.1291ZM78.6746 45.2203C81.2394 45.2203 83.2994 44.3317 84.8544 42.5545C86.4296 40.7571 87.2173 38.4649 87.2173 35.6779C87.2173 32.8708 86.4296 30.5786 84.8544 28.8014C83.2994 27.0242 81.2394 26.1356 78.6746 26.1356C76.0896 26.1356 74.0196 27.0242 72.4645 28.8014C70.9095 30.5786 70.1319 32.8708 70.1319 35.6779C70.1319 38.4649 70.9095 40.7571 72.4645 42.5545C74.0196 44.3317 76.0896 45.2203 78.6746 45.2203Z" fill="#40454E"/>
<path d="M104.474 45.7656H93.356V25.56H94.3254V44.8568H104.474V45.7656Z" fill="#40454E"/>
<path d="M57.8884 46.1291C56.3737 46.1291 55.0105 45.8362 53.7988 45.2506C52.5871 44.6649 51.5975 43.8874 50.8301 42.918L51.6177 42.2213C53.2535 44.2206 55.3438 45.2203 57.8884 45.2203C58.9991 45.2203 59.9584 45.0789 60.7662 44.7962C61.574 44.4932 62.1799 44.1095 62.5838 43.645C62.9877 43.1603 63.2806 42.6757 63.4623 42.191C63.6441 41.6861 63.735 41.1711 63.735 40.646C63.735 39.616 63.432 38.7577 62.8262 38.0711C62.2203 37.3643 61.463 36.8594 60.5542 36.5564C59.6454 36.2535 58.6558 35.9405 57.5854 35.6174C56.5353 35.274 55.5558 34.9509 54.647 34.648C53.7382 34.3248 52.9809 33.7998 52.375 33.0727C51.7692 32.3457 51.4662 31.447 51.4662 30.3766C51.4662 28.8014 52.0822 27.5493 53.3141 26.6203C54.546 25.6913 56.0405 25.2268 57.7975 25.2268C60.6249 25.2268 62.806 26.176 64.3408 28.0744L63.5835 28.7711C62.2304 27.0141 60.3017 26.1356 57.7975 26.1356C56.303 26.1356 55.0509 26.5395 54.0412 27.3473C53.0314 28.1349 52.5265 29.1447 52.5265 30.3766C52.5265 31.1441 52.7486 31.8004 53.1929 32.3457C53.6574 32.891 54.2431 33.3151 54.9499 33.618C55.677 33.9209 56.4747 34.2037 57.3431 34.4662C58.2317 34.7086 59.1102 34.9812 59.9786 35.2841C60.847 35.5669 61.6346 35.9102 62.3415 36.3141C63.0685 36.718 63.6542 37.2936 64.0985 38.0408C64.563 38.7678 64.7952 39.6362 64.7952 40.646C64.7952 41.2721 64.6841 41.888 64.462 42.4939C64.2398 43.0796 63.8864 43.6652 63.4017 44.2509C62.917 44.8164 62.2001 45.2708 61.2509 45.6141C60.3017 45.9574 59.1809 46.1291 57.8884 46.1291Z" stroke="#40454E" stroke-width="0.907216"/>
<path d="M78.6746 46.1291C75.7867 46.1291 73.4642 45.1395 71.7072 43.1603C69.9502 41.161 69.0717 38.6669 69.0717 35.6779C69.0717 32.689 69.9502 30.205 71.7072 28.2258C73.4642 26.2265 75.7867 25.2268 78.6746 25.2268C81.5424 25.2268 83.8547 26.2265 85.6117 28.2258C87.3889 30.205 88.2775 32.689 88.2775 35.6779C88.2775 38.6669 87.3889 41.161 85.6117 43.1603C83.8547 45.1395 81.5424 46.1291 78.6746 46.1291ZM78.6746 45.2203C81.2394 45.2203 83.2994 44.3317 84.8544 42.5545C86.4296 40.7571 87.2173 38.4649 87.2173 35.6779C87.2173 32.8708 86.4296 30.5786 84.8544 28.8014C83.2994 27.0242 81.2394 26.1356 78.6746 26.1356C76.0896 26.1356 74.0196 27.0242 72.4645 28.8014C70.9095 30.5786 70.1319 32.8708 70.1319 35.6779C70.1319 38.4649 70.9095 40.7571 72.4645 42.5545C74.0196 44.3317 76.0896 45.2203 78.6746 45.2203Z" stroke="#40454E" stroke-width="0.907216"/>
<path d="M104.474 45.7656H93.356V25.56H94.3254V44.8568H104.474V45.7656Z" stroke="#40454E" stroke-width="0.907216"/>
<circle cx="45.823" cy="6.40206" r="3.40206" fill="#4FB0EF"/>
</svg>
